<svg xmlns="http://www.w3.org/2000/svg" xmlns:xlink="http://www.w3.org/1999/xlink" width="500" zoomAndPan="magnify" viewBox="0 0 375 149.999998" height="200" preserveAspectRatio="xMidYMid meet" version="1.0"><defs><g/></defs><g fill="#39312e" fill-opacity="1"><g transform="translate(4.85931, 103.810264)"><g><path d="M 2.921875 0 L 2.921875 -3.21875 L 3.890625 -3.21875 C 4.765625 -3.21875 5.582031 -3.28125 6.34375 -3.40625 C 7.113281 -3.53125 7.785156 -3.785156 8.359375 -4.171875 C 8.929688 -4.566406 9.378906 -5.125 9.703125 -5.84375 C 10.035156 -6.570312 10.203125 -7.535156 10.203125 -8.734375 L 10.203125 -46.359375 C 10.203125 -47.484375 10.03125 -48.390625 9.6875 -49.078125 C 9.351562 -49.765625 8.894531 -50.296875 8.3125 -50.671875 C 7.738281 -51.046875 7.070312 -51.289062 6.3125 -51.40625 C 5.550781 -51.519531 4.742188 -51.578125 3.890625 -51.578125 L 2.921875 -51.578125 L 2.921875 -54.796875 L 24.46875 -54.796875 C 27.695312 -54.796875 30.5 -54.425781 32.875 -53.6875 C 35.25 -52.957031 37.207031 -51.894531 38.75 -50.5 C 40.300781 -49.113281 41.457031 -47.429688 42.21875 -45.453125 C 42.988281 -43.484375 43.375 -41.25 43.375 -38.75 C 43.375 -36.476562 43.015625 -34.289062 42.296875 -32.1875 C 41.585938 -30.09375 40.421875 -28.238281 38.796875 -26.625 C 37.171875 -25.019531 35.046875 -23.734375 32.421875 -22.765625 C 29.796875 -21.804688 26.585938 -21.328125 22.796875 -21.328125 L 17.953125 -21.328125 L 17.953125 -8.359375 C 17.953125 -7.234375 18.117188 -6.328125 18.453125 -5.640625 C 18.796875 -4.953125 19.253906 -4.429688 19.828125 -4.078125 C 20.398438 -3.734375 21.066406 -3.503906 21.828125 -3.390625 C 22.597656 -3.273438 23.40625 -3.21875 24.25 -3.21875 L 26.796875 -3.21875 L 26.796875 0 Z M 17.953125 -24.96875 L 22.046875 -24.96875 C 24.367188 -24.96875 26.351562 -25.207031 28 -25.6875 C 29.644531 -26.175781 30.992188 -26.960938 32.046875 -28.046875 C 33.097656 -29.140625 33.863281 -30.539062 34.34375 -32.25 C 34.832031 -33.96875 35.078125 -36.035156 35.078125 -38.453125 C 35.078125 -40.609375 34.863281 -42.476562 34.4375 -44.0625 C 34.019531 -45.644531 33.335938 -46.960938 32.390625 -48.015625 C 31.441406 -49.066406 30.207031 -49.847656 28.6875 -50.359375 C 27.175781 -50.867188 25.335938 -51.125 23.171875 -51.125 L 17.953125 -51.125 Z M 17.953125 -24.96875 "/></g></g></g><g fill="#39312e" fill-opacity="1"><g transform="translate(51.224641, 103.810264)"><g><path d="M 15.515625 -18.328125 L 12.59375 -10.265625 C 12.363281 -9.671875 12.1875 -9.078125 12.0625 -8.484375 C 11.9375 -7.898438 11.875 -7.394531 11.875 -6.96875 C 11.875 -5.664062 12.289062 -4.710938 13.125 -4.109375 C 13.96875 -3.515625 15.253906 -3.21875 16.984375 -3.21875 L 18.734375 -3.21875 L 18.734375 0 L 0 0 L 0 -3.21875 L 1.46875 -3.21875 C 2.21875 -3.21875 2.851562 -3.296875 3.375 -3.453125 C 3.894531 -3.617188 4.367188 -3.925781 4.796875 -4.375 C 5.222656 -4.832031 5.628906 -5.445312 6.015625 -6.21875 C 6.398438 -7 6.832031 -8 7.3125 -9.21875 L 24.328125 -54.796875 L 30.328125 -54.796875 L 47.671875 -7.3125 C 47.972656 -6.507812 48.28125 -5.84375 48.59375 -5.3125 C 48.90625 -4.789062 49.273438 -4.375 49.703125 -4.0625 C 50.128906 -3.75 50.613281 -3.53125 51.15625 -3.40625 C 51.707031 -3.28125 52.359375 -3.21875 53.109375 -3.21875 L 54.125 -3.21875 L 54.125 0 L 33.015625 0 L 33.015625 -3.21875 L 34.78125 -3.21875 C 37.851562 -3.21875 39.390625 -4.441406 39.390625 -6.890625 C 39.390625 -7.316406 39.332031 -7.753906 39.21875 -8.203125 C 39.113281 -8.660156 38.957031 -9.175781 38.75 -9.75 L 35.6875 -18.328125 Z M 29.53125 -35.609375 C 28.738281 -37.878906 28.007812 -40.007812 27.34375 -42 C 26.675781 -43.988281 26.132812 -45.90625 25.71875 -47.75 C 25.539062 -46.820312 25.332031 -45.925781 25.09375 -45.0625 C 24.851562 -44.207031 24.597656 -43.328125 24.328125 -42.421875 C 24.054688 -41.523438 23.742188 -40.582031 23.390625 -39.59375 C 23.035156 -38.613281 22.632812 -37.523438 22.1875 -36.328125 L 16.984375 -22.1875 L 34.296875 -22.1875 Z M 29.53125 -35.609375 "/></g></g></g><g fill="#39312e" fill-opacity="1"><g transform="translate(105.348764, 103.810264)"><g><path d="M 51.421875 -27.46875 C 51.421875 -23.269531 50.894531 -19.476562 49.84375 -16.09375 C 48.800781 -12.707031 47.242188 -9.820312 45.171875 -7.4375 C 43.097656 -5.050781 40.5 -3.210938 37.375 -1.921875 C 34.25 -0.640625 30.597656 0 26.421875 0 L 2.921875 0 L 2.921875 -3.21875 L 3.890625 -3.21875 C 4.765625 -3.21875 5.582031 -3.28125 6.34375 -3.40625 C 7.113281 -3.53125 7.785156 -3.785156 8.359375 -4.171875 C 8.929688 -4.566406 9.378906 -5.125 9.703125 -5.84375 C 10.035156 -6.570312 10.203125 -7.535156 10.203125 -8.734375 L 10.203125 -46.359375 C 10.203125 -47.484375 10.03125 -48.390625 9.6875 -49.078125 C 9.351562 -49.765625 8.894531 -50.296875 8.3125 -50.671875 C 7.738281 -51.046875 7.070312 -51.289062 6.3125 -51.40625 C 5.550781 -51.519531 4.742188 -51.578125 3.890625 -51.578125 L 2.921875 -51.578125 L 2.921875 -54.796875 L 26.421875 -54.796875 C 30.367188 -54.796875 33.890625 -54.191406 36.984375 -52.984375 C 40.085938 -51.773438 42.707031 -50.003906 44.84375 -47.671875 C 46.976562 -45.347656 48.609375 -42.488281 49.734375 -39.09375 C 50.859375 -35.695312 51.421875 -31.820312 51.421875 -27.46875 Z M 24.625 -3.890625 C 27.675781 -3.890625 30.34375 -4.410156 32.625 -5.453125 C 34.914062 -6.492188 36.820312 -8.007812 38.34375 -10 C 39.863281 -12 41.003906 -14.460938 41.765625 -17.390625 C 42.535156 -20.316406 42.921875 -23.675781 42.921875 -27.46875 C 42.921875 -35.09375 41.398438 -40.914062 38.359375 -44.9375 C 35.328125 -48.96875 30.773438 -50.984375 24.703125 -50.984375 L 17.953125 -50.984375 L 17.953125 -3.890625 Z M 24.625 -3.890625 "/></g></g></g><g fill="#39312e" fill-opacity="1"><g transform="translate(161.159581, 103.810264)"><g><path d="M 27.78125 0.75 C 24.75 0.75 22.035156 0.429688 19.640625 -0.203125 C 17.242188 -0.835938 15.210938 -1.847656 13.546875 -3.234375 C 11.890625 -4.628906 10.625 -6.414062 9.75 -8.59375 C 8.875 -10.78125 8.4375 -13.4375 8.4375 -16.5625 L 8.4375 -46.359375 C 8.4375 -47.484375 8.265625 -48.390625 7.921875 -49.078125 C 7.585938 -49.765625 7.132812 -50.296875 6.5625 -50.671875 C 5.988281 -51.046875 5.316406 -51.289062 4.546875 -51.40625 C 3.785156 -51.519531 2.984375 -51.578125 2.140625 -51.578125 L 1.15625 -51.578125 L 1.15625 -54.796875 L 23.5 -54.796875 L 23.5 -51.578125 L 22.484375 -51.578125 C 21.640625 -51.578125 20.828125 -51.515625 20.046875 -51.390625 C 19.273438 -51.265625 18.609375 -51.007812 18.046875 -50.625 C 17.484375 -50.238281 17.03125 -49.679688 16.6875 -48.953125 C 16.351562 -48.222656 16.1875 -47.257812 16.1875 -46.0625 L 16.1875 -16.125 C 16.1875 -13.894531 16.503906 -12 17.140625 -10.4375 C 17.785156 -8.875 18.675781 -7.601562 19.8125 -6.625 C 20.945312 -5.65625 22.296875 -4.945312 23.859375 -4.5 C 25.421875 -4.050781 27.140625 -3.828125 29.015625 -3.828125 C 31.234375 -3.828125 33.148438 -4.125 34.765625 -4.71875 C 36.378906 -5.320312 37.71875 -6.15625 38.78125 -7.21875 C 39.84375 -8.28125 40.628906 -9.539062 41.140625 -11 C 41.648438 -12.457031 41.90625 -14.0625 41.90625 -15.8125 L 41.90625 -46.359375 C 41.90625 -47.484375 41.734375 -48.390625 41.390625 -49.078125 C 41.054688 -49.765625 40.601562 -50.296875 40.03125 -50.671875 C 39.457031 -51.046875 38.789062 -51.289062 38.03125 -51.40625 C 37.269531 -51.519531 36.460938 -51.578125 35.609375 -51.578125 L 34.640625 -51.578125 L 34.640625 -54.796875 L 53.90625 -54.796875 L 53.90625 -51.578125 L 52.890625 -51.578125 C 52.035156 -51.578125 51.222656 -51.515625 50.453125 -51.390625 C 49.679688 -51.265625 49.015625 -51.007812 48.453125 -50.625 C 47.890625 -50.238281 47.4375 -49.679688 47.09375 -48.953125 C 46.757812 -48.222656 46.59375 -47.257812 46.59375 -46.0625 L 46.59375 -15.671875 C 46.59375 -13.117188 46.1875 -10.820312 45.375 -8.78125 C 44.5625 -6.75 43.359375 -5.023438 41.765625 -3.609375 C 40.179688 -2.203125 38.210938 -1.125 35.859375 -0.375 C 33.515625 0.375 30.820312 0.75 27.78125 0.75 Z M 27.78125 0.75 "/></g></g></g><g fill="#39312e" fill-opacity="1"><g transform="translate(216.183274, 103.810264)"><g><path d="M 33.84375 -42.625 C 34.664062 -43.570312 35.351562 -44.410156 35.90625 -45.140625 C 36.457031 -45.878906 36.890625 -46.546875 37.203125 -47.140625 C 37.515625 -47.742188 37.738281 -48.269531 37.875 -48.71875 C 38.007812 -49.175781 38.078125 -49.59375 38.078125 -49.96875 C 38.078125 -50.613281 37.765625 -51.054688 37.140625 -51.296875 C 36.515625 -51.535156 35.566406 -51.65625 34.296875 -51.65625 L 34.296875 -54.796875 L 51.28125 -54.796875 L 51.28125 -51.65625 C 50.40625 -51.65625 49.5625 -51.484375 48.75 -51.140625 C 47.9375 -50.804688 47.125 -50.332031 46.3125 -49.71875 C 45.5 -49.101562 44.660156 -48.351562 43.796875 -47.46875 C 42.929688 -46.582031 42 -45.578125 41 -44.453125 L 29.875 -31.9375 L 46.0625 -9.375 C 47.539062 -7.34375 48.957031 -5.804688 50.3125 -4.765625 C 51.675781 -3.734375 53.070312 -3.21875 54.5 -3.21875 L 54.65625 -3.21875 L 54.65625 0 L 53.828125 0 C 51.253906 0 49.140625 -0.0976562 47.484375 -0.296875 C 45.835938 -0.492188 44.453125 -0.851562 43.328125 -1.375 C 42.203125 -1.90625 41.21875 -2.613281 40.375 -3.5 C 39.539062 -4.382812 38.648438 -5.515625 37.703125 -6.890625 L 24.46875 -25.859375 L 17.953125 -20.578125 L 17.953125 -8.734375 C 17.953125 -7.535156 18.117188 -6.570312 18.453125 -5.84375 C 18.796875 -5.125 19.25 -4.566406 19.8125 -4.171875 C 20.375 -3.785156 21.039062 -3.53125 21.8125 -3.40625 C 22.59375 -3.28125 23.40625 -3.21875 24.25 -3.21875 L 25.265625 -3.21875 L 25.265625 0 L 2.921875 0 L 2.921875 -3.21875 L 3.890625 -3.21875 C 4.742188 -3.21875 5.550781 -3.273438 6.3125 -3.390625 C 7.070312 -3.503906 7.738281 -3.734375 8.3125 -4.078125 C 8.894531 -4.429688 9.351562 -4.953125 9.6875 -5.640625 C 10.03125 -6.328125 10.203125 -7.234375 10.203125 -8.359375 L 10.203125 -46.359375 C 10.203125 -47.484375 10.03125 -48.390625 9.6875 -49.078125 C 9.351562 -49.765625 8.894531 -50.296875 8.3125 -50.671875 C 7.738281 -51.046875 7.070312 -51.289062 6.3125 -51.40625 C 5.550781 -51.519531 4.742188 -51.578125 3.890625 -51.578125 L 2.921875 -51.578125 L 2.921875 -54.796875 L 25.265625 -54.796875 L 25.265625 -51.578125 L 24.25 -51.578125 C 23.40625 -51.578125 22.59375 -51.515625 21.8125 -51.390625 C 21.039062 -51.265625 20.375 -51.007812 19.8125 -50.625 C 19.25 -50.238281 18.796875 -49.679688 18.453125 -48.953125 C 18.117188 -48.222656 17.953125 -47.257812 17.953125 -46.0625 L 17.953125 -24.40625 Z M 33.84375 -42.625 "/></g></g></g><g fill="#39312e" fill-opacity="1"><g transform="translate(269.932576, 103.810264)"><g><path d="M 2.921875 0 L 2.921875 -3.21875 L 3.890625 -3.21875 C 4.765625 -3.21875 5.582031 -3.28125 6.34375 -3.40625 C 7.113281 -3.53125 7.785156 -3.785156 8.359375 -4.171875 C 8.929688 -4.566406 9.378906 -5.125 9.703125 -5.84375 C 10.035156 -6.570312 10.203125 -7.535156 10.203125 -8.734375 L 10.203125 -46.0625 C 10.203125 -47.257812 10.035156 -48.222656 9.703125 -48.953125 C 9.378906 -49.679688 8.929688 -50.238281 8.359375 -50.625 C 7.785156 -51.007812 7.113281 -51.265625 6.34375 -51.390625 C 5.582031 -51.515625 4.765625 -51.578125 3.890625 -51.578125 L 2.921875 -51.578125 L 2.921875 -54.796875 L 25.265625 -54.796875 L 25.265625 -51.578125 L 24.25 -51.578125 C 23.40625 -51.578125 22.59375 -51.515625 21.8125 -51.390625 C 21.039062 -51.265625 20.375 -51.007812 19.8125 -50.625 C 19.25 -50.238281 18.796875 -49.679688 18.453125 -48.953125 C 18.117188 -48.222656 17.953125 -47.257812 17.953125 -46.0625 L 17.953125 -8.734375 C 17.953125 -7.535156 18.117188 -6.570312 18.453125 -5.84375 C 18.796875 -5.125 19.25 -4.566406 19.8125 -4.171875 C 20.375 -3.785156 21.039062 -3.53125 21.8125 -3.40625 C 22.59375 -3.28125 23.40625 -3.21875 24.25 -3.21875 L 25.265625 -3.21875 L 25.265625 0 Z M 2.921875 0 "/></g></g></g><g fill="#39312e" fill-opacity="1"><g transform="translate(298.1191, 103.810264)"><g><path d="M 48.65625 0 L 48.65625 -3.21875 L 48.921875 -3.21875 C 49.742188 -3.21875 50.484375 -3.273438 51.140625 -3.390625 C 51.804688 -3.503906 52.367188 -3.726562 52.828125 -4.0625 C 53.296875 -4.40625 53.664062 -4.894531 53.9375 -5.53125 C 54.207031 -6.164062 54.367188 -7.007812 54.421875 -8.0625 L 54.421875 -49.0625 L 36.84375 0 L 32.6875 0 L 14.875 -48.921875 L 14.875 -8.734375 C 14.875 -7.535156 15 -6.570312 15.25 -5.84375 C 15.5 -5.125 15.867188 -4.566406 16.359375 -4.171875 C 16.847656 -3.785156 17.4375 -3.53125 18.125 -3.40625 C 18.8125 -3.28125 19.578125 -3.21875 20.421875 -3.21875 L 20.65625 -3.21875 L 20.65625 0 L 2.921875 0 L 2.921875 -3.21875 L 3.890625 -3.21875 C 4.742188 -3.21875 5.550781 -3.273438 6.3125 -3.390625 C 7.070312 -3.503906 7.738281 -3.734375 8.3125 -4.078125 C 8.894531 -4.429688 9.351562 -4.953125 9.6875 -5.640625 C 10.03125 -6.328125 10.203125 -7.234375 10.203125 -8.359375 L 10.203125 -46.359375 C 10.203125 -47.484375 10.03125 -48.390625 9.6875 -49.078125 C 9.351562 -49.765625 8.894531 -50.296875 8.3125 -50.671875 C 7.738281 -51.046875 7.070312 -51.289062 6.3125 -51.40625 C 5.550781 -51.519531 4.742188 -51.578125 3.890625 -51.578125 L 2.921875 -51.578125 L 2.921875 -54.796875 L 20.421875 -54.796875 L 36.328125 -10.90625 L 52.0625 -54.796875 L 69.078125 -54.796875 L 69.078125 -51.578125 L 68.109375 -51.578125 C 67.234375 -51.578125 66.414062 -51.515625 65.65625 -51.390625 C 64.894531 -51.265625 64.222656 -51.007812 63.640625 -50.625 C 63.066406 -50.238281 62.617188 -49.679688 62.296875 -48.953125 C 61.972656 -48.222656 61.8125 -47.257812 61.8125 -46.0625 L 61.8125 -8.734375 C 61.8125 -7.535156 61.972656 -6.570312 62.296875 -5.84375 C 62.617188 -5.125 63.066406 -4.566406 63.640625 -4.171875 C 64.222656 -3.785156 64.894531 -3.53125 65.65625 -3.40625 C 66.414062 -3.28125 67.234375 -3.21875 68.109375 -3.21875 L 69.078125 -3.21875 L 69.078125 0 Z M 48.65625 0 "/></g></g></g></svg>