<svg xmlns="http://www.w3.org/2000/svg" xmlns:xlink="http://www.w3.org/1999/xlink" width="500" zoomAndPan="magnify" viewBox="0 0 375 374.999991" height="500" preserveAspectRatio="xMidYMid meet" version="1.0"><defs><g/><clipPath id="b57ed05b08"><path d="M 50.859375 51.246094 L 323.859375 51.246094 L 323.859375 323.496094 L 50.859375 323.496094 Z M 50.859375 51.246094 " clip-rule="nonzero"/></clipPath><clipPath id="7e45bbc410"><path d="M 55.03125 55.40625 L 319.78125 55.40625 L 319.78125 319.40625 L 55.03125 319.40625 Z M 55.03125 55.40625 " clip-rule="nonzero"/></clipPath><clipPath id="9a66699fce"><path d="M 59.890625 60.253906 L 314.890625 60.253906 L 314.890625 314.503906 L 59.890625 314.503906 Z M 59.890625 60.253906 " clip-rule="nonzero"/></clipPath><clipPath id="63c18795d7"><path d="M 58.355469 172.507812 L 87.605469 172.507812 L 87.605469 202.507812 L 58.355469 202.507812 Z M 58.355469 172.507812 " clip-rule="nonzero"/></clipPath><clipPath id="6123d8e0a0"><path d="M 286.652344 172.507812 L 316.652344 172.507812 L 316.652344 202.507812 L 286.652344 202.507812 Z M 286.652344 172.507812 " clip-rule="nonzero"/></clipPath><clipPath id="32c100dfb3"><path d="M 83.625 84.679688 L 290.292969 84.679688 L 290.292969 291.347656 L 83.625 291.347656 Z M 83.625 84.679688 " clip-rule="nonzero"/></clipPath><clipPath id="e14dd9424c"><path d="M 160.664062 103 L 212 103 L 212 154.425781 L 160.664062 154.425781 Z M 160.664062 103 " clip-rule="nonzero"/></clipPath><clipPath id="f6cc4c0a89"><path d="M 244 158.683594 L 244.449219 158.683594 L 244.449219 165.554688 L 244 165.554688 Z M 244 158.683594 " clip-rule="nonzero"/></clipPath><clipPath id="759870e351"><path d="M 123.042969 158.167969 L 244.542969 158.167969 L 244.542969 271.417969 L 123.042969 271.417969 Z M 123.042969 158.167969 " clip-rule="nonzero"/></clipPath></defs><g clip-path="url(#b57ed05b08)"><path fill="#f5f1e2" d="M 187.359375 51.246094 C 111.972656 51.246094 50.859375 112.191406 50.859375 187.371094 C 50.859375 262.550781 111.972656 323.496094 187.359375 323.496094 C 262.746094 323.496094 323.859375 262.550781 323.859375 187.371094 C 323.859375 112.191406 262.746094 51.246094 187.359375 51.246094 " fill-opacity="1" fill-rule="nonzero"/></g><g clip-path="url(#7e45bbc410)"><path fill="#39312e" d="M 187.40625 55.40625 C 114.296875 55.40625 55.03125 114.507812 55.03125 187.40625 C 55.03125 260.308594 114.296875 319.40625 187.40625 319.40625 C 260.515625 319.40625 319.78125 260.308594 319.78125 187.40625 C 319.78125 114.507812 260.515625 55.40625 187.40625 55.40625 " fill-opacity="1" fill-rule="nonzero"/></g><g clip-path="url(#9a66699fce)"><path fill="#f5f1e2" d="M 187.390625 60.253906 C 116.976562 60.253906 59.890625 117.167969 59.890625 187.378906 C 59.890625 257.585938 116.976562 314.503906 187.390625 314.503906 C 257.808594 314.503906 314.890625 257.585938 314.890625 187.378906 C 314.890625 117.167969 257.808594 60.253906 187.390625 60.253906 " fill-opacity="1" fill-rule="nonzero"/></g><g clip-path="url(#63c18795d7)"><path fill="#39312e" d="M 58.355469 172.511719 L 87.605469 172.511719 L 87.605469 202.507812 L 58.355469 202.507812 L 58.355469 172.511719 " fill-opacity="1" fill-rule="nonzero"/></g><g clip-path="url(#6123d8e0a0)"><path fill="#39312e" d="M 286.65625 172.507812 L 316.652344 172.507812 L 316.652344 202.507812 L 286.65625 202.507812 L 286.65625 172.507812 " fill-opacity="1" fill-rule="nonzero"/></g><g clip-path="url(#32c100dfb3)"><path fill="#39312e" d="M 186.960938 291.347656 C 159.371094 291.347656 133.394531 280.609375 113.898438 261.074219 C 94.363281 241.578125 83.625 215.601562 83.625 188.011719 C 83.625 160.425781 94.363281 134.445312 113.898438 114.953125 C 133.394531 95.417969 159.371094 84.679688 186.960938 84.679688 C 214.546875 84.679688 240.527344 95.417969 260.019531 114.953125 C 279.554688 134.488281 290.292969 160.425781 290.292969 188.011719 C 290.292969 215.601562 279.554688 241.578125 260.019531 261.074219 C 240.527344 280.609375 214.546875 291.347656 186.960938 291.347656 Z M 186.960938 90.875 C 161.023438 90.875 136.613281 100.992188 118.277344 119.328125 C 99.9375 137.667969 89.820312 162.074219 89.820312 188.011719 C 89.820312 213.949219 99.9375 238.359375 118.277344 256.695312 C 136.613281 275.035156 161.023438 285.152344 186.960938 285.152344 C 212.894531 285.152344 237.304688 275.035156 255.644531 256.695312 C 273.980469 238.359375 284.097656 213.949219 284.097656 188.011719 C 284.097656 162.074219 273.980469 137.667969 255.644531 119.328125 C 237.304688 100.992188 212.894531 90.875 186.960938 90.875 Z M 186.960938 90.875 " fill-opacity="1" fill-rule="nonzero"/></g><path fill="#39312e" d="M 166.957031 110.515625 C 165.800781 110.515625 164.757812 110.34375 164.390625 109.847656 C 163.484375 108.617188 167.40625 105.398438 167.449219 105.367188 C 168.023438 104.910156 168.511719 104.726562 168.980469 104.777344 C 169.691406 104.863281 170.164062 105.476562 170.769531 106.246094 L 171.128906 106.707031 C 171.769531 107.507812 172.230469 108.085938 172.089844 108.753906 C 171.96875 109.335938 171.417969 109.695312 170.953125 109.949219 C 170.558594 110.160156 168.636719 110.515625 166.957031 110.515625 " fill-opacity="1" fill-rule="nonzero"/><path fill="#39312e" d="M 172.96875 119.925781 C 172.578125 119.925781 172.234375 119.878906 171.988281 119.777344 C 170.945312 119.339844 171.097656 117.359375 171.472656 116.417969 C 171.699219 115.847656 172.226562 115.355469 172.875 115.09375 C 173.410156 114.882812 174.28125 114.71875 175.394531 115.167969 C 176.457031 115.59375 177.21875 116.394531 177.429688 117.304688 C 177.570312 117.898438 177.445312 118.464844 177.09375 118.851562 C 176.71875 119.261719 174.484375 119.925781 172.96875 119.925781 " fill-opacity="1" fill-rule="nonzero"/><path fill="#39312e" d="M 163.847656 119.449219 C 163.65625 119.449219 163.476562 119.425781 163.320312 119.378906 C 162.546875 119.160156 161.921875 118.195312 162.253906 117.019531 C 162.613281 115.777344 163.585938 115.707031 164.109375 115.667969 L 164.199219 115.664062 C 164.765625 115.617188 165.328125 116.027344 165.625 116.703125 C 165.996094 117.535156 165.855469 118.429688 165.273438 118.976562 C 164.964844 119.273438 164.378906 119.449219 163.847656 119.449219 " fill-opacity="1" fill-rule="nonzero"/><path fill="#39312e" d="M 173.175781 125.230469 L 173.179688 125.230469 Z M 172.289062 126.929688 C 172.128906 126.929688 171.945312 126.894531 171.746094 126.785156 C 171.417969 126.609375 169.75 124.859375 170.054688 124.035156 C 170.304688 123.332031 172.328125 123.085938 173.042969 123.316406 C 173.6875 123.523438 173.847656 123.949219 173.875 124.269531 C 173.902344 124.601562 173.792969 124.9375 173.667969 125.324219 L 173.648438 125.378906 C 173.441406 126.023438 173.175781 126.644531 172.648438 126.859375 C 172.554688 126.898438 172.433594 126.929688 172.289062 126.929688 " fill-opacity="1" fill-rule="nonzero"/><g clip-path="url(#e14dd9424c)"><path fill="#39312e" d="M 204.632812 124.945312 C 203.882812 126.089844 203.144531 126.933594 202 126.179688 C 200.855469 125.429688 200.011719 124.832031 201.289062 122.746094 C 202.378906 120.957031 203.578125 121.277344 204.722656 122.03125 C 205.867188 122.785156 205.386719 123.800781 204.632812 124.945312 Z M 199.066406 142.824219 C 198.945312 144.21875 198.222656 145.289062 196.835938 145.171875 C 195.445312 145.050781 194.417969 143.828125 194.535156 142.433594 C 194.65625 141.042969 195.882812 140.015625 197.273438 140.132812 C 198.660156 140.253906 199.1875 141.4375 199.066406 142.824219 Z M 194.007812 115.320312 C 192.507812 116.476562 190.359375 116.191406 189.203125 114.6875 C 188.054688 113.191406 188.839844 111.695312 190.339844 110.542969 C 191.839844 109.390625 193.484375 109.015625 194.640625 110.515625 C 195.789062 112.015625 195.507812 114.164062 194.007812 115.320312 Z M 190.628906 123.621094 C 189.542969 124.457031 188.808594 123.621094 187.972656 122.53125 C 187.140625 121.445312 186.523438 120.515625 187.609375 119.683594 C 188.695312 118.847656 190.253906 119.054688 191.082031 120.140625 C 191.921875 121.230469 191.714844 122.785156 190.628906 123.621094 Z M 189.6875 135.789062 C 188.808594 136.464844 187.546875 136.304688 186.871094 135.417969 C 186.1875 134.539062 186.355469 133.277344 187.238281 132.601562 C 188.117188 131.917969 189.058594 132.332031 189.742188 133.214844 C 190.410156 134.09375 190.566406 135.113281 189.6875 135.789062 Z M 185.269531 147.347656 C 184.242188 148.132812 183.007812 148.25 182.222656 147.226562 C 181.433594 146.199219 181.628906 144.730469 182.652344 143.941406 C 183.679688 143.148438 185.148438 143.34375 185.9375 144.367188 C 186.726562 145.394531 186.292969 146.558594 185.269531 147.347656 Z M 173.636719 137.53125 C 173.523438 138.035156 171.785156 140.589844 171.074219 140.535156 C 170.632812 140.496094 170.40625 138.503906 170.453125 137.386719 C 170.503906 136.257812 171.09375 136.371094 172.214844 136.421875 C 173.339844 136.46875 173.882812 136.429688 173.636719 137.53125 Z M 206.183594 113.359375 C 202.773438 108.917969 198.128906 105.792969 192.742188 104.328125 C 187.53125 102.90625 181.902344 103.191406 176.894531 105.132812 C 176.769531 105.175781 176.667969 105.277344 176.621094 105.394531 C 176.566406 105.515625 176.566406 105.652344 176.609375 105.777344 C 176.769531 106.164062 176.84375 106.574219 176.839844 106.992188 C 176.835938 107.125 176.886719 107.25 176.980469 107.347656 C 177.074219 107.441406 177.203125 107.496094 177.332031 107.496094 C 177.332031 107.496094 177.332031 107.496094 177.335938 107.496094 C 177.972656 107.5 178.597656 107.683594 179.125 108.050781 C 180.550781 109.039062 180.90625 110.996094 179.917969 112.421875 C 179.914062 112.429688 179.90625 112.441406 179.898438 112.453125 C 179.882812 112.46875 179.871094 112.488281 179.851562 112.503906 C 179.753906 112.640625 179.730469 112.8125 179.785156 112.96875 C 179.832031 113.105469 179.882812 113.238281 179.921875 113.371094 C 179.972656 113.515625 180.082031 113.632812 180.226562 113.683594 C 180.5 113.785156 180.753906 113.917969 180.972656 114.070312 C 182.5 115.125 182.886719 117.226562 181.832031 118.757812 C 181.660156 119 181.453125 119.230469 181.207031 119.429688 C 181.035156 119.570312 180.984375 119.808594 181.074219 120.011719 C 181.554688 121.097656 181.441406 122.324219 180.769531 123.300781 C 180.203125 124.117188 179.304688 124.640625 178.316406 124.734375 C 178.171875 124.746094 178.039062 124.824219 177.953125 124.945312 C 177.871094 125.0625 177.847656 125.214844 177.882812 125.355469 C 178.148438 126.320312 177.972656 127.339844 177.410156 128.160156 C 176.679688 129.21875 175.433594 129.757812 174.160156 129.574219 C 174.003906 129.550781 173.851562 129.601562 173.746094 129.707031 C 172.59375 130.828125 170.804688 130.972656 169.488281 130.0625 C 169.480469 130.054688 169.472656 130.046875 169.460938 130.042969 C 169.445312 130.027344 169.425781 130.015625 169.410156 130.003906 C 169.21875 129.863281 168.960938 129.871094 168.785156 130.027344 C 167.625 131.054688 165.917969 131.15625 164.648438 130.273438 C 164.242188 129.992188 163.910156 129.628906 163.65625 129.195312 C 163.53125 128.984375 163.269531 128.890625 163.039062 128.988281 C 162.46875 129.226562 161.84375 129.304688 161.230469 129.207031 C 161.089844 129.1875 160.9375 129.230469 160.832031 129.324219 C 160.71875 129.425781 160.660156 129.570312 160.664062 129.714844 C 160.84375 135.035156 162.65625 140.082031 165.90625 144.320312 C 170.898438 150.828125 178.445312 154.242188 186.074219 154.242188 C 191.472656 154.242188 196.910156 152.53125 201.511719 148.996094 C 212.617188 140.457031 214.714844 124.472656 206.183594 113.359375 " fill-opacity="1" fill-rule="nonzero"/></g><g clip-path="url(#f6cc4c0a89)"><path fill="#39312e" d="M 292.101562 80.570312 C 290.78125 82.355469 290.554688 83.851562 289.804688 86.84375 C 289.0625 89.835938 287.054688 91.679688 286.078125 93.636719 C 285.105469 95.59375 279.539062 98.359375 273.746094 98.761719 C 267.953125 99.164062 263.367188 96.398438 260.671875 94.5 C 260.671875 94.5 262.046875 94.5 263.941406 95.996094 C 265.832031 97.492188 269.273438 97.492188 273.578125 97.777344 C 277.878906 98.0625 279.78125 97.53125 282.007812 95.996094 C 284.230469 94.464844 285.046875 93.117188 287.113281 90.527344 C 289.175781 87.9375 289.519531 82.410156 290.609375 80.859375 C 291.699219 79.304688 292.902344 76.945312 293.019531 76.597656 C 293.132812 76.253906 293.417969 78.785156 292.101562 80.570312 Z M 263.882812 92.023438 C 264.167969 91.507812 266.121094 91.105469 266.863281 90.585938 C 267.609375 90.066406 266.808594 88.800781 266.863281 88.511719 C 266.863281 88.511719 267.574219 88.304688 267.796875 88.304688 C 268.023438 88.304688 267.417969 90.144531 268.261719 90.683594 C 269.101562 91.21875 271.738281 92.167969 271.738281 92.167969 C 271.738281 92.167969 270.59375 92.3125 269.101562 91.5625 C 267.609375 90.816406 267.78125 91.160156 266.75 91.332031 C 265.71875 91.507812 263.59375 92.542969 263.882812 92.023438 Z M 330.125 31.355469 C 326.457031 29.398438 323.074219 31.125 319.632812 32.621094 C 316.1875 34.117188 314.238281 38.953125 312.171875 44.132812 C 310.109375 49.3125 306.441406 57.085938 304.261719 61.34375 C 302.082031 65.605469 300.417969 70.210938 299.84375 71.476562 C 299.269531 72.742188 294.566406 67.390625 292.503906 66.585938 C 292.503906 66.585938 291.929688 66.929688 291.929688 66.179688 C 291.929688 65.433594 291.984375 63.820312 292.5625 61 C 293.132812 58.179688 292.847656 55.761719 291.296875 52.882812 C 289.75 50.003906 289.234375 49.660156 287.113281 50.40625 C 284.988281 51.15625 278.851562 60.367188 277.820312 60.941406 C 276.789062 61.519531 276.902344 61.117188 274.261719 60.308594 C 271.625 59.503906 266.347656 60.710938 263.824219 59.617188 C 261.300781 58.523438 258.949219 53.574219 253.328125 48.738281 C 247.707031 43.902344 250.863281 61.117188 251.148438 63.015625 C 251.4375 64.914062 250.574219 63.707031 250.117188 66.585938 C 249.65625 69.460938 249.945312 70.324219 249.714844 70.902344 C 249.484375 71.476562 248.339844 72.972656 249.199219 76.3125 C 250.058594 79.648438 250.289062 80.28125 251.320312 82.816406 C 252.355469 85.347656 254.246094 89.148438 253.84375 92.601562 C 253.445312 96.054688 254.417969 103.539062 254.476562 107.453125 C 254.535156 111.367188 250.632812 110.617188 250.632812 115.796875 C 250.632812 120.976562 248.625 120.519531 247.707031 123.625 C 246.789062 126.734375 245.988281 126.90625 244.839844 128.117188 C 243.691406 129.324219 245.242188 132.546875 247.191406 134.101562 C 249.144531 135.65625 250.058594 135.65625 252.753906 134.101562 C 255.453125 132.546875 257.632812 128.519531 258.203125 127.597656 C 258.777344 126.675781 260.554688 125.984375 262.964844 125.179688 C 265.375 124.375 267.78125 119.828125 268.871094 117.238281 C 269.960938 114.648438 269.042969 113.726562 271.339844 112.976562 C 273.632812 112.230469 277.878906 113.265625 277.761719 113.785156 C 277.648438 114.300781 277.128906 114.476562 275.46875 116.203125 C 273.804688 117.929688 269.902344 121.382812 268.355469 122.820312 C 266.808594 124.257812 267.4375 124.375 266.808594 125.753906 C 266.175781 127.136719 265.601562 128.804688 265.429688 129.785156 C 265.257812 130.761719 266.519531 133.007812 267.898438 134.390625 C 269.273438 135.773438 271.566406 135.140625 273.289062 135.65625 C 275.007812 136.175781 276.269531 135.539062 277.300781 134.792969 C 278.335938 134.046875 280.628906 129.152344 280.917969 128.921875 C 281.203125 128.691406 281.144531 130.417969 282.578125 133.699219 C 284.015625 136.980469 288.488281 137.84375 290.265625 139.167969 C 292.042969 140.492188 288.660156 159.71875 289.292969 160.695312 C 289.921875 161.675781 289.976562 161.558594 290.4375 162.652344 C 290.894531 163.746094 291.699219 164.609375 292.902344 164.726562 C 294.105469 164.839844 294.222656 164.953125 295.773438 165.070312 C 297.320312 165.183594 296.863281 162.480469 297.261719 161.960938 C 297.664062 161.445312 298.121094 161.730469 298.871094 160.523438 C 299.613281 159.316406 298.8125 139.859375 299.613281 136.691406 C 300.417969 133.527344 297.550781 124.949219 298.179688 124.488281 C 298.8125 124.027344 299.730469 119.136719 300.933594 118.90625 C 302.136719 118.675781 303.171875 120.171875 306.78125 125.410156 C 310.398438 130.648438 315.15625 132.375 317.507812 133.46875 C 319.863281 134.5625 318.886719 148.667969 319.863281 150.738281 C 320.835938 152.8125 321.125 152.179688 322.039062 153.269531 C 322.957031 154.363281 325.652344 155.6875 326.800781 155.226562 C 327.945312 154.769531 330.355469 152.867188 329.898438 150.507812 C 329.441406 148.148438 327.316406 134.390625 326.515625 130.304688 C 325.710938 126.214844 328.921875 118.214844 324.675781 114.703125 C 320.433594 111.195312 322.441406 107.335938 318.714844 96.976562 C 314.984375 86.613281 311.546875 86.441406 309.59375 81.664062 C 307.644531 76.886719 323.933594 46.148438 325.824219 42.925781 C 327.71875 39.703125 327.433594 41.773438 330.929688 40.738281 C 334.429688 39.703125 333.796875 33.3125 330.125 31.355469 " fill-opacity="1" fill-rule="nonzero"/></g><g clip-path="url(#759870e351)"><path fill="#39312e" d="M 226.433594 244.761719 C 225.652344 238.410156 226.152344 238.03125 224.839844 235.390625 C 223.523438 232.753906 222.269531 228.601562 222.644531 229.292969 C 223.019531 229.984375 224.148438 231.871094 224.148438 231.871094 C 224.183594 231.972656 224.21875 232.078125 224.257812 232.191406 C 224.867188 234.007812 226.0625 237.507812 226.59375 240.171875 C 227.15625 243 226.90625 247.65625 227.535156 249.351562 C 228.160156 251.050781 228.597656 255.199219 228.722656 255.640625 C 228.847656 256.078125 227.21875 251.113281 226.433594 244.761719 Z M 244.449219 202.632812 C 244.449219 196.15625 241.316406 191.878906 240.375 187.730469 C 239.4375 183.582031 241.816406 179.621094 240.941406 176.035156 C 240.0625 172.453125 240.3125 172.203125 240.691406 170.878906 C 241.066406 169.558594 242.445312 164.273438 241.316406 161.320312 C 240.1875 158.367188 240.753906 158.179688 239 159.371094 C 237.242188 160.566406 235.113281 161.824219 233.859375 163.648438 C 232.609375 165.472656 232.796875 165.660156 232.042969 166.164062 C 231.292969 166.667969 228.160156 165.285156 224.277344 165.722656 C 220.390625 166.164062 220.078125 166.289062 219.324219 166.164062 C 218.574219 166.039062 217.570312 162.894531 214.625 161.261719 C 211.683594 159.625 211.683594 159.625 211.683594 159.625 C 211.683594 159.625 210.679688 162.832031 211.808594 166.667969 C 212.933594 170.503906 213.25 170.878906 212.996094 172.136719 C 212.746094 173.394531 210.617188 175.410156 211.429688 179.371094 C 212.246094 183.332031 212.183594 183.519531 213.375 184.585938 C 214.5625 185.65625 213.808594 187.917969 213.75 188.359375 C 213.6875 188.800781 213.375 188.925781 213.375 188.925781 C 213.375 188.925781 200.464844 188.925781 188.8125 190.9375 C 177.160156 192.949219 169.140625 200.75 163.125 196.347656 C 157.109375 191.945312 153.355469 187.292969 148.839844 179.996094 C 144.332031 172.703125 141.949219 167.671875 136.9375 164.152344 C 131.925781 160.632812 124.15625 160.128906 123.65625 164.152344 C 123.15625 168.175781 126.539062 173.835938 128.417969 175.597656 C 130.296875 177.355469 132.175781 174.96875 131.925781 172.703125 C 131.675781 170.441406 131.425781 168.429688 133.054688 170.441406 C 134.683594 172.453125 138.816406 176.851562 140.949219 181.882812 C 143.078125 186.914062 149.09375 197.980469 152.222656 201 C 155.359375 204.019531 155.984375 203.515625 155.984375 206.65625 C 155.984375 209.800781 151.222656 209.925781 153.605469 218.855469 C 155.984375 227.785156 159.117188 232.941406 159.367188 235.957031 C 159.617188 238.976562 156.359375 237.96875 156.988281 245.390625 C 157.613281 252.808594 157.238281 261.992188 157.363281 263.625 C 157.488281 265.261719 158.742188 269.285156 161.496094 269.285156 C 164.253906 269.285156 165.507812 269.914062 167.261719 268.65625 C 169.015625 267.394531 169.84375 266.894531 168.488281 264.757812 C 167.136719 262.621094 166.886719 263.121094 165.882812 261.863281 C 164.878906 260.605469 163.628906 252.433594 165.757812 250.421875 C 167.886719 248.410156 175.03125 242.371094 176.410156 244.511719 C 177.789062 246.648438 175.65625 247.90625 177.410156 250.421875 C 179.167969 252.933594 190.566406 264.441406 192.195312 265.699219 C 193.824219 266.957031 195.203125 267.019531 198.964844 267.207031 C 202.722656 267.394531 204.226562 265.511719 204.664062 264 C 205.105469 262.492188 202.28125 260.417969 199.964844 261.109375 C 197.648438 261.800781 196.308594 261.109375 195.320312 259.347656 C 194.328125 257.589844 189.128906 253.375 190.566406 250.796875 C 192.007812 248.21875 194.265625 243.316406 198.902344 240.675781 C 203.539062 238.03125 206.984375 236.589844 209.929688 237.089844 C 212.871094 237.59375 213.3125 237.34375 214.125 241.617188 C 214.941406 245.890625 217.445312 251.425781 218.574219 253.878906 C 219.699219 256.332031 220.203125 262.683594 220.390625 264.441406 C 220.578125 266.203125 221.140625 267.207031 222.019531 267.269531 C 222.894531 267.332031 222.394531 266.578125 222.894531 267.332031 C 223.398438 268.089844 222.832031 270.164062 224.523438 270.792969 C 226.214844 271.421875 226.089844 270.605469 228.160156 270.792969 C 230.226562 270.980469 231.351562 270.730469 232.292969 270.667969 C 233.234375 270.605469 234.425781 270.289062 234.800781 268.402344 C 235.175781 266.515625 230.980469 264.253906 229.726562 257.398438 C 228.472656 250.546875 233.53125 241.175781 234.824219 236.398438 C 236.117188 231.621094 244.449219 209.109375 244.449219 202.632812 " fill-opacity="1" fill-rule="nonzero"/></g><g fill="#39312e" fill-opacity="1"><g transform="translate(91.084424, 138.686809)"><g><path d="M 0.875 -1.78125 L -12.21875 -8.140625 L -8.375 -16.0625 L -7.15625 -15.234375 L -9.546875 -11.84375 C -9.859375 -11.195312 -10.09375 -10.4375 -10.25 -9.5625 L -5.4375 -7.21875 L -3.296875 -11.609375 L -2.5625 -11.25 L -4.703125 -6.859375 L 1.078125 -4.046875 L 3.453125 -10.484375 L 4.6875 -9.640625 Z M 0.875 -1.78125 "/></g></g></g><g fill="#39312e" fill-opacity="1"><g transform="translate(95.898916, 128.568348)"><g><path d="M -7.703125 -9.890625 C -7.179688 -9.515625 -6.550781 -9.375 -5.8125 -9.46875 C -5.070312 -9.5625 -4.316406 -9.78125 -3.546875 -10.125 C -2.773438 -10.476562 -2.003906 -10.816406 -1.234375 -11.140625 C -0.472656 -11.472656 0.304688 -11.660156 1.109375 -11.703125 C 1.910156 -11.753906 2.625 -11.5625 3.25 -11.125 C 4.21875 -10.425781 4.753906 -9.488281 4.859375 -8.3125 C 4.972656 -7.144531 4.585938 -5.945312 3.703125 -4.71875 C 2.828125 -3.488281 1.722656 -2.441406 0.390625 -1.578125 L -0.453125 -2.1875 C 1.035156 -2.96875 2.082031 -3.78125 2.6875 -4.625 C 3.300781 -5.476562 3.566406 -6.289062 3.484375 -7.0625 C 3.410156 -7.84375 3.007812 -8.5 2.28125 -9.03125 C 1.78125 -9.382812 1.179688 -9.515625 0.484375 -9.421875 C -0.210938 -9.328125 -0.914062 -9.109375 -1.625 -8.765625 C -2.332031 -8.421875 -3.039062 -8.082031 -3.75 -7.75 C -4.46875 -7.414062 -5.21875 -7.226562 -6 -7.1875 C -6.78125 -7.15625 -7.519531 -7.390625 -8.21875 -7.890625 C -8.925781 -8.390625 -9.359375 -9.171875 -9.515625 -10.234375 C -9.679688 -11.296875 -9.320312 -12.445312 -8.4375 -13.6875 C -7.863281 -14.5 -6.941406 -15.394531 -5.671875 -16.375 L -4.59375 -15.328125 C -6.4375 -14.210938 -7.769531 -13.082031 -8.59375 -11.9375 C -8.726562 -11.09375 -8.429688 -10.410156 -7.703125 -9.890625 Z M -7.703125 -9.890625 "/></g></g></g><g fill="#39312e" fill-opacity="1"><g transform="translate(102.297065, 119.499519)"><g><path d="M 4.921875 -4.90625 L 3.40625 -3.40625 L -6.140625 -12.96875 C -6.578125 -12.695312 -6.96875 -12.390625 -7.3125 -12.046875 L -8.9375 -9.453125 L -10.140625 -10.453125 L -2.125 -18.453125 L -1.09375 -17.28125 L -3.6875 -15.65625 C -4.039062 -15.300781 -4.351562 -14.90625 -4.625 -14.46875 Z M 4.921875 -4.90625 "/></g></g></g><g fill="#39312e" fill-opacity="1"><g transform="translate(109.52097, 111.862345)"><g><path d="M 1.640625 -1.109375 L -6.546875 -13.15625 L -3.109375 -15.5 C -1.679688 -16.46875 -0.1875 -17.046875 1.375 -17.234375 C 2.21875 -17.328125 3.03125 -17.289062 3.8125 -17.125 C 4.59375 -16.96875 5.367188 -16.617188 6.140625 -16.078125 C 6.921875 -15.535156 7.613281 -14.816406 8.21875 -13.921875 C 9.09375 -12.628906 9.515625 -11.328125 9.484375 -10.015625 C 9.410156 -7.585938 8.054688 -5.476562 5.421875 -3.6875 Z M 4.625 -4.0625 C 6.164062 -5.113281 7.09375 -6.410156 7.40625 -7.953125 C 7.726562 -9.492188 7.296875 -11.144531 6.109375 -12.90625 C 5.179688 -14.269531 4.019531 -15.179688 2.625 -15.640625 C 1.226562 -16.097656 -0.160156 -16.082031 -1.546875 -15.59375 C -2.609375 -14.875 -3.445312 -14.125 -4.0625 -13.34375 L 2.890625 -3.109375 C 3.347656 -3.265625 3.925781 -3.582031 4.625 -4.0625 Z M 4.625 -4.0625 "/></g></g></g><g fill="#39312e" fill-opacity="1"><g transform="translate(258.059545, 105.306416)"><g><path d="M 14.75 -1.71875 C 14.238281 -1.03125 13.265625 -0.46875 11.828125 -0.03125 C 9.359375 0.738281 6.640625 1.0625 3.671875 0.9375 L 3.578125 1.0625 L 9.890625 5.296875 L 8.890625 6.640625 L 1.125 0.84375 L 1.84375 -0.125 C 3.84375 0.0507812 5.988281 -0.101562 8.28125 -0.59375 C 10.582031 -1.09375 12.148438 -1.898438 12.984375 -3.015625 C 13.828125 -4.140625 13.863281 -5.320312 13.09375 -6.5625 C 12.144531 -7.269531 10.914062 -7.898438 9.40625 -8.453125 L 9.9375 -10.015625 C 11.0625 -9.609375 12.125 -9.03125 13.125 -8.28125 C 14.625 -7.164062 15.453125 -6.035156 15.609375 -4.890625 C 15.765625 -3.753906 15.476562 -2.695312 14.75 -1.71875 Z M 14.75 -1.71875 "/></g></g></g><g fill="#39312e" fill-opacity="1"><g transform="translate(267.183096, 112.020045)"><g><path d="M 14.96875 -5.421875 C 16 -4.390625 16.421875 -3.101562 16.234375 -1.5625 C 16.054688 -0.03125 15.195312 1.503906 13.65625 3.046875 C 12.664062 4.035156 11.660156 4.765625 10.640625 5.234375 C 9.628906 5.710938 8.703125 5.925781 7.859375 5.875 C 6.210938 5.832031 4.875 5.289062 3.84375 4.25 C 2.8125 3.21875 2.398438 1.921875 2.609375 0.359375 C 2.816406 -1.191406 3.691406 -2.738281 5.234375 -4.28125 C 6.222656 -5.269531 7.21875 -6 8.21875 -6.46875 C 9.226562 -6.9375 10.148438 -7.148438 10.984375 -7.109375 C 12.609375 -7.023438 13.9375 -6.460938 14.96875 -5.421875 Z M 11.703125 1.703125 C 12.898438 0.503906 13.6875 -0.734375 14.0625 -2.015625 C 14.4375 -3.304688 14.269531 -4.300781 13.5625 -5 C 12.863281 -5.707031 11.9375 -5.882812 10.78125 -5.53125 C 9.625 -5.1875 8.398438 -4.367188 7.109375 -3.078125 C 5.828125 -1.796875 4.988281 -0.503906 4.59375 0.796875 C 4.195312 2.109375 4.320312 3.085938 4.96875 3.734375 C 6.53125 5.296875 8.773438 4.617188 11.703125 1.703125 Z M 11.703125 1.703125 "/></g></g></g><g fill="#39312e" fill-opacity="1"><g transform="translate(275.241063, 119.981298)"><g><path d="M 14.609375 2.578125 C 13.921875 3.078125 12.828125 3.335938 11.328125 3.359375 C 8.753906 3.378906 6.066406 2.910156 3.265625 1.953125 L 3.140625 2.046875 L 7.953125 7.90625 L 6.609375 8.90625 L 0.84375 1.125 L 1.8125 0.40625 C 3.664062 1.15625 5.765625 1.617188 8.109375 1.796875 C 10.453125 1.984375 12.179688 1.660156 13.296875 0.828125 C 14.421875 -0.00390625 14.796875 -1.132812 14.421875 -2.5625 C 13.710938 -3.5 12.710938 -4.445312 11.421875 -5.40625 L 12.390625 -6.75 C 13.347656 -6.039062 14.203125 -5.1875 14.953125 -4.1875 C 16.054688 -2.6875 16.519531 -1.363281 16.34375 -0.21875 C 16.164062 0.914062 15.585938 1.847656 14.609375 2.578125 Z M 14.609375 2.578125 "/></g></g></g><g fill="#39312e" fill-opacity="1"><g transform="translate(282.064391, 129.023135)"><g><path d="M 14.09375 4.65625 C 13.34375 5.0625 12.222656 5.164062 10.734375 4.96875 C 8.179688 4.613281 5.582031 3.753906 2.9375 2.390625 L 2.796875 2.46875 L 6.734375 8.96875 L 5.265625 9.765625 L 0.671875 1.234375 L 1.734375 0.65625 C 3.460938 1.675781 5.472656 2.441406 7.765625 2.953125 C 10.054688 3.460938 11.816406 3.382812 13.046875 2.71875 C 14.273438 2.0625 14.804688 1.007812 14.640625 -0.4375 C 14.078125 -1.476562 13.226562 -2.566406 12.09375 -3.703125 L 13.234375 -4.890625 C 14.078125 -4.054688 14.796875 -3.085938 15.390625 -1.984375 C 16.273438 -0.347656 16.546875 1.019531 16.203125 2.125 C 15.867188 3.238281 15.164062 4.082031 14.09375 4.65625 Z M 14.09375 4.65625 "/></g></g></g><g fill="#39312e" fill-opacity="1"><g transform="translate(124.13074, 297.315011)"><g><path d="M 0.859375 0.46875 L 1.375 -0.484375 L 1.6875 -0.3125 C 1.9375 -0.175781 2.1875 -0.0664062 2.4375 0.015625 C 2.6875 0.0976562 2.925781 0.128906 3.15625 0.109375 C 3.394531 0.0976562 3.617188 0.0078125 3.828125 -0.15625 C 4.046875 -0.320312 4.25 -0.582031 4.4375 -0.9375 L 10.546875 -12.140625 C 10.722656 -12.472656 10.816406 -12.769531 10.828125 -13.03125 C 10.835938 -13.289062 10.785156 -13.523438 10.671875 -13.734375 C 10.566406 -13.941406 10.410156 -14.117188 10.203125 -14.265625 C 9.992188 -14.421875 9.769531 -14.566406 9.53125 -14.703125 L 9.21875 -14.875 L 9.734375 -15.828125 L 16.15625 -12.328125 C 17.113281 -11.804688 17.882812 -11.242188 18.46875 -10.640625 C 19.0625 -10.035156 19.476562 -9.398438 19.71875 -8.734375 C 19.957031 -8.078125 20.023438 -7.394531 19.921875 -6.6875 C 19.828125 -5.976562 19.582031 -5.253906 19.1875 -4.515625 C 18.8125 -3.835938 18.347656 -3.242188 17.796875 -2.734375 C 17.242188 -2.222656 16.59375 -1.859375 15.84375 -1.640625 C 15.101562 -1.421875 14.265625 -1.378906 13.328125 -1.515625 C 12.398438 -1.648438 11.367188 -2.03125 10.234375 -2.65625 L 8.796875 -3.4375 L 6.703125 0.421875 C 6.515625 0.753906 6.414062 1.050781 6.40625 1.3125 C 6.394531 1.570312 6.445312 1.800781 6.5625 2 C 6.675781 2.195312 6.832031 2.375 7.03125 2.53125 C 7.238281 2.6875 7.472656 2.835938 7.734375 2.984375 L 8.484375 3.390625 L 7.96875 4.34375 Z M 9.390625 -4.515625 L 10.609375 -3.84375 C 11.296875 -3.476562 11.925781 -3.234375 12.5 -3.109375 C 13.070312 -2.984375 13.597656 -3 14.078125 -3.15625 C 14.566406 -3.3125 15.019531 -3.601562 15.4375 -4.03125 C 15.863281 -4.457031 16.273438 -5.03125 16.671875 -5.75 C 17.015625 -6.394531 17.253906 -6.984375 17.390625 -7.515625 C 17.523438 -8.054688 17.53125 -8.5625 17.40625 -9.03125 C 17.289062 -9.5 17.050781 -9.929688 16.6875 -10.328125 C 16.320312 -10.722656 15.816406 -11.097656 15.171875 -11.453125 L 13.625 -12.296875 Z M 9.390625 -4.515625 "/></g></g></g><g fill="#39312e" fill-opacity="1"><g transform="translate(139.328439, 305.565578)"><g><path d="M 7.03125 -4.078125 L 5.1875 -1.859375 C 5.050781 -1.679688 4.925781 -1.503906 4.8125 -1.328125 C 4.707031 -1.160156 4.632812 -1.007812 4.59375 -0.875 C 4.445312 -0.46875 4.46875 -0.125 4.65625 0.15625 C 4.851562 0.445312 5.226562 0.691406 5.78125 0.890625 L 6.34375 1.09375 L 5.984375 2.125 L 0 0 L 0.359375 -1.03125 L 0.828125 -0.859375 C 1.066406 -0.773438 1.28125 -0.726562 1.46875 -0.71875 C 1.65625 -0.707031 1.84375 -0.75 2.03125 -0.84375 C 2.21875 -0.945312 2.414062 -1.097656 2.625 -1.296875 C 2.84375 -1.503906 3.09375 -1.773438 3.375 -2.109375 L 13.984375 -14.734375 L 15.890625 -14.046875 L 16.046875 3.078125 C 16.046875 3.367188 16.066406 3.613281 16.109375 3.8125 C 16.160156 4.019531 16.234375 4.195312 16.328125 4.34375 C 16.421875 4.488281 16.546875 4.609375 16.703125 4.703125 C 16.867188 4.804688 17.070312 4.898438 17.3125 4.984375 L 17.625 5.109375 L 17.265625 6.140625 L 10.546875 3.75 L 10.90625 2.71875 L 11.453125 2.90625 C 12.441406 3.257812 13.078125 3.046875 13.359375 2.265625 C 13.410156 2.128906 13.441406 1.984375 13.453125 1.828125 C 13.472656 1.671875 13.476562 1.488281 13.46875 1.28125 L 13.46875 -1.796875 Z M 13.46875 -8.015625 C 13.46875 -8.828125 13.472656 -9.585938 13.484375 -10.296875 C 13.492188 -11.015625 13.539062 -11.6875 13.625 -12.3125 C 13.46875 -12.039062 13.300781 -11.78125 13.125 -11.53125 C 12.945312 -11.289062 12.757812 -11.046875 12.5625 -10.796875 C 12.375 -10.546875 12.171875 -10.273438 11.953125 -9.984375 C 11.734375 -9.703125 11.484375 -9.398438 11.203125 -9.078125 L 7.9375 -5.15625 L 13.453125 -3.1875 Z M 13.46875 -8.015625 "/></g></g></g><g fill="#39312e" fill-opacity="1"><g transform="translate(158.280615, 312.167939)"><g><path d="M 18.75 -6.234375 C 18.5 -4.828125 18.101562 -3.585938 17.5625 -2.515625 C 17.019531 -1.453125 16.332031 -0.582031 15.5 0.09375 C 14.675781 0.769531 13.707031 1.234375 12.59375 1.484375 C 11.476562 1.742188 10.222656 1.753906 8.828125 1.515625 L 0.96875 0.171875 L 1.15625 -0.90625 L 1.5 -0.859375 C 1.78125 -0.804688 2.050781 -0.773438 2.3125 -0.765625 C 2.582031 -0.765625 2.820312 -0.8125 3.03125 -0.90625 C 3.238281 -1.007812 3.414062 -1.171875 3.5625 -1.390625 C 3.71875 -1.617188 3.832031 -1.929688 3.90625 -2.328125 L 6.0625 -14.90625 C 6.125 -15.28125 6.113281 -15.585938 6.03125 -15.828125 C 5.957031 -16.066406 5.835938 -16.269531 5.671875 -16.4375 C 5.515625 -16.601562 5.304688 -16.722656 5.046875 -16.796875 C 4.796875 -16.878906 4.535156 -16.945312 4.265625 -17 L 3.921875 -17.046875 L 4.109375 -18.125 L 11.96875 -16.78125 C 13.28125 -16.5625 14.414062 -16.160156 15.375 -15.578125 C 16.34375 -14.992188 17.117188 -14.25 17.703125 -13.34375 C 18.285156 -12.445312 18.664062 -11.398438 18.84375 -10.203125 C 19.019531 -9.003906 18.988281 -7.679688 18.75 -6.234375 Z M 8.4375 0.09375 C 9.457031 0.269531 10.378906 0.25 11.203125 0.03125 C 12.035156 -0.175781 12.757812 -0.566406 13.375 -1.140625 C 14 -1.722656 14.519531 -2.476562 14.9375 -3.40625 C 15.363281 -4.34375 15.6875 -5.445312 15.90625 -6.71875 C 16.332031 -9.257812 16.148438 -11.285156 15.359375 -12.796875 C 14.578125 -14.316406 13.171875 -15.253906 11.140625 -15.609375 L 8.890625 -15.984375 L 6.203125 -0.28125 Z M 8.4375 0.09375 "/></g></g></g><g fill="#39312e" fill-opacity="1"><g transform="translate(178.663749, 315.492493)"><g><path d="M 9.40625 0.21875 C 8.382812 0.21875 7.46875 0.113281 6.65625 -0.09375 C 5.84375 -0.300781 5.15625 -0.640625 4.59375 -1.109375 C 4.03125 -1.578125 3.597656 -2.179688 3.296875 -2.921875 C 2.992188 -3.671875 2.84375 -4.570312 2.84375 -5.625 L 2.796875 -15.71875 C 2.796875 -16.101562 2.738281 -16.410156 2.625 -16.640625 C 2.507812 -16.867188 2.351562 -17.046875 2.15625 -17.171875 C 1.96875 -17.296875 1.742188 -17.375 1.484375 -17.40625 C 1.222656 -17.445312 0.945312 -17.46875 0.65625 -17.46875 L 0.328125 -17.46875 L 0.328125 -18.5625 L 7.890625 -18.59375 L 7.890625 -17.5 L 7.5625 -17.5 C 7.269531 -17.5 6.992188 -17.476562 6.734375 -17.4375 C 6.472656 -17.394531 6.242188 -17.304688 6.046875 -17.171875 C 5.859375 -17.035156 5.707031 -16.84375 5.59375 -16.59375 C 5.476562 -16.351562 5.421875 -16.03125 5.421875 -15.625 L 5.46875 -5.46875 C 5.46875 -4.71875 5.570312 -4.078125 5.78125 -3.546875 C 6 -3.023438 6.300781 -2.597656 6.6875 -2.265625 C 7.082031 -1.941406 7.546875 -1.703125 8.078125 -1.546875 C 8.609375 -1.398438 9.191406 -1.328125 9.828125 -1.328125 C 10.578125 -1.335938 11.222656 -1.441406 11.765625 -1.640625 C 12.316406 -1.847656 12.769531 -2.128906 13.125 -2.484375 C 13.476562 -2.847656 13.738281 -3.273438 13.90625 -3.765625 C 14.082031 -4.265625 14.171875 -4.8125 14.171875 -5.40625 L 14.125 -15.75 C 14.125 -16.132812 14.066406 -16.441406 13.953125 -16.671875 C 13.835938 -16.898438 13.679688 -17.078125 13.484375 -17.203125 C 13.296875 -17.335938 13.070312 -17.421875 12.8125 -17.453125 C 12.5625 -17.492188 12.289062 -17.515625 12 -17.515625 L 11.671875 -17.515625 L 11.671875 -18.609375 L 18.1875 -18.625 L 18.1875 -17.53125 L 17.84375 -17.53125 C 17.5625 -17.53125 17.285156 -17.507812 17.015625 -17.46875 C 16.753906 -17.425781 16.53125 -17.335938 16.34375 -17.203125 C 16.15625 -17.078125 16.003906 -16.890625 15.890625 -16.640625 C 15.773438 -16.398438 15.71875 -16.078125 15.71875 -15.671875 L 15.765625 -5.375 C 15.765625 -4.507812 15.628906 -3.726562 15.359375 -3.03125 C 15.085938 -2.34375 14.679688 -1.757812 14.140625 -1.28125 C 13.609375 -0.800781 12.941406 -0.429688 12.140625 -0.171875 C 11.347656 0.078125 10.4375 0.207031 9.40625 0.21875 Z M 9.40625 0.21875 "/></g></g></g><g fill="#39312e" fill-opacity="1"><g transform="translate(199.013786, 315.253349)"><g><path d="M 8.796875 -16.203125 C 9.023438 -16.578125 9.207031 -16.898438 9.34375 -17.171875 C 9.476562 -17.453125 9.582031 -17.695312 9.65625 -17.90625 C 9.726562 -18.125 9.773438 -18.3125 9.796875 -18.46875 C 9.816406 -18.632812 9.816406 -18.78125 9.796875 -18.90625 C 9.753906 -19.113281 9.617188 -19.238281 9.390625 -19.28125 C 9.160156 -19.332031 8.832031 -19.316406 8.40625 -19.234375 L 8.234375 -20.28125 L 13.90625 -21.28125 L 14.078125 -20.234375 C 13.785156 -20.179688 13.507812 -20.070312 13.25 -19.90625 C 13 -19.75 12.753906 -19.546875 12.515625 -19.296875 C 12.285156 -19.046875 12.050781 -18.742188 11.8125 -18.390625 C 11.582031 -18.046875 11.335938 -17.660156 11.078125 -17.234375 L 8.09375 -12.40625 L 14.828125 -5.828125 C 15.429688 -5.234375 15.988281 -4.800781 16.5 -4.53125 C 17.019531 -4.269531 17.515625 -4.179688 17.984375 -4.265625 L 18.046875 -4.28125 L 18.234375 -3.203125 L 17.953125 -3.15625 C 17.097656 -3 16.390625 -2.90625 15.828125 -2.875 C 15.265625 -2.851562 14.78125 -2.894531 14.375 -3 C 13.96875 -3.101562 13.597656 -3.28125 13.265625 -3.53125 C 12.929688 -3.78125 12.566406 -4.109375 12.171875 -4.515625 L 6.65625 -10.078125 L 4.78125 -7.90625 L 5.46875 -3.953125 C 5.539062 -3.554688 5.65625 -3.242188 5.8125 -3.015625 C 5.96875 -2.796875 6.148438 -2.640625 6.359375 -2.546875 C 6.578125 -2.453125 6.816406 -2.40625 7.078125 -2.40625 C 7.335938 -2.414062 7.613281 -2.445312 7.90625 -2.5 L 8.25 -2.5625 L 8.4375 -1.484375 L 0.96875 -0.171875 L 0.78125 -1.25 L 1.125 -1.3125 C 1.394531 -1.351562 1.65625 -1.414062 1.90625 -1.5 C 2.164062 -1.582031 2.378906 -1.695312 2.546875 -1.84375 C 2.710938 -1.988281 2.832031 -2.1875 2.90625 -2.4375 C 2.976562 -2.695312 2.984375 -3.007812 2.921875 -3.375 L 0.6875 -16.0625 C 0.625 -16.4375 0.515625 -16.726562 0.359375 -16.9375 C 0.203125 -17.144531 0.0195312 -17.296875 -0.1875 -17.390625 C -0.394531 -17.484375 -0.628906 -17.523438 -0.890625 -17.515625 C -1.160156 -17.503906 -1.429688 -17.476562 -1.703125 -17.4375 L -2.046875 -17.375 L -2.234375 -18.453125 L 5.234375 -19.765625 L 5.421875 -18.6875 L 5.078125 -18.625 C 4.785156 -18.570312 4.515625 -18.5 4.265625 -18.40625 C 4.015625 -18.320312 3.804688 -18.203125 3.640625 -18.046875 C 3.472656 -17.890625 3.351562 -17.675781 3.28125 -17.40625 C 3.21875 -17.144531 3.21875 -16.816406 3.28125 -16.421875 L 4.5625 -9.1875 Z M 8.796875 -16.203125 "/></g></g></g><g fill="#39312e" fill-opacity="1"><g transform="translate(218.125327, 311.534433)"><g><path d="M 0.9375 -0.296875 L 0.609375 -1.34375 L 0.9375 -1.4375 C 1.21875 -1.53125 1.476562 -1.628906 1.71875 -1.734375 C 1.957031 -1.847656 2.144531 -1.992188 2.28125 -2.171875 C 2.425781 -2.359375 2.515625 -2.585938 2.546875 -2.859375 C 2.578125 -3.128906 2.535156 -3.457031 2.421875 -3.84375 L -1.34375 -15.9375 C -1.46875 -16.320312 -1.617188 -16.613281 -1.796875 -16.8125 C -1.972656 -17.007812 -2.171875 -17.140625 -2.390625 -17.203125 C -2.609375 -17.273438 -2.847656 -17.289062 -3.109375 -17.25 C -3.367188 -17.21875 -3.640625 -17.15625 -3.921875 -17.0625 L -4.25 -16.96875 L -4.578125 -18.015625 L 2.65625 -20.265625 L 2.984375 -19.21875 L 2.65625 -19.109375 C 2.375 -19.023438 2.113281 -18.925781 1.875 -18.8125 C 1.644531 -18.695312 1.453125 -18.546875 1.296875 -18.359375 C 1.148438 -18.179688 1.054688 -17.957031 1.015625 -17.6875 C 0.984375 -17.425781 1.03125 -17.101562 1.15625 -16.71875 L 4.921875 -4.625 C 5.035156 -4.238281 5.179688 -3.941406 5.359375 -3.734375 C 5.546875 -3.535156 5.753906 -3.398438 5.984375 -3.328125 C 6.210938 -3.265625 6.453125 -3.253906 6.703125 -3.296875 C 6.960938 -3.335938 7.234375 -3.398438 7.515625 -3.484375 L 7.84375 -3.59375 L 8.171875 -2.546875 Z M 0.9375 -0.296875 "/></g></g></g><g fill="#39312e" fill-opacity="1"><g transform="translate(228.925322, 308.648084)"><g><path d="M 14.78125 -7.296875 L 14.296875 -8.28125 L 14.359375 -8.3125 C 14.617188 -8.4375 14.835938 -8.5625 15.015625 -8.6875 C 15.203125 -8.820312 15.335938 -8.972656 15.421875 -9.140625 C 15.515625 -9.316406 15.554688 -9.519531 15.546875 -9.75 C 15.535156 -9.988281 15.460938 -10.273438 15.328125 -10.609375 L 9.171875 -23.0625 L 11.1875 -5.53125 L 9.9375 -4.90625 L -2.796875 -17.078125 L 3.21875 -4.875 C 3.40625 -4.519531 3.585938 -4.25 3.765625 -4.0625 C 3.941406 -3.875 4.132812 -3.757812 4.34375 -3.71875 C 4.550781 -3.675781 4.765625 -3.6875 4.984375 -3.75 C 5.210938 -3.820312 5.457031 -3.921875 5.71875 -4.046875 L 5.796875 -4.078125 L 6.28125 -3.09375 L 0.875 -0.4375 L 0.390625 -1.421875 L 0.703125 -1.578125 C 0.953125 -1.703125 1.1875 -1.835938 1.40625 -1.984375 C 1.625 -2.128906 1.789062 -2.296875 1.90625 -2.484375 C 2.03125 -2.679688 2.09375 -2.910156 2.09375 -3.171875 C 2.09375 -3.429688 2.007812 -3.726562 1.84375 -4.0625 L -3.859375 -15.609375 C -4.023438 -15.953125 -4.210938 -16.203125 -4.421875 -16.359375 C -4.628906 -16.515625 -4.847656 -16.609375 -5.078125 -16.640625 C -5.304688 -16.671875 -5.546875 -16.644531 -5.796875 -16.5625 C -6.046875 -16.488281 -6.296875 -16.390625 -6.546875 -16.265625 L -6.859375 -16.109375 L -7.34375 -17.078125 L -2.015625 -19.703125 L 9.40625 -8.75 L 7.59375 -24.453125 L 12.75 -27 L 13.234375 -26.03125 L 12.953125 -25.875 C 12.679688 -25.75 12.441406 -25.609375 12.234375 -25.453125 C 12.023438 -25.296875 11.859375 -25.113281 11.734375 -24.90625 C 11.617188 -24.707031 11.566406 -24.472656 11.578125 -24.203125 C 11.597656 -23.941406 11.695312 -23.628906 11.875 -23.265625 L 17.46875 -11.90625 C 17.65625 -11.550781 17.847656 -11.285156 18.046875 -11.109375 C 18.242188 -10.929688 18.457031 -10.828125 18.6875 -10.796875 C 18.925781 -10.773438 19.171875 -10.800781 19.421875 -10.875 C 19.671875 -10.957031 19.929688 -11.0625 20.203125 -11.1875 L 20.484375 -11.34375 L 20.96875 -10.359375 Z M 14.78125 -7.296875 "/></g></g></g></svg>